<?xml version="1.0" encoding="utf-8"?>
<!-- Generator: Adobe Illustrator 16.0.0, SVG Export Plug-In . SVG Version: 6.00 Build 0)  -->
<!DOCTYPE svg PUBLIC "-//W3C//DTD SVG 1.1//EN" "http://www.w3.org/Graphics/SVG/1.1/DTD/svg11.dtd">
<svg version="1.1" id="Layer_1" xmlns="http://www.w3.org/2000/svg" xmlns:xlink="http://www.w3.org/1999/xlink" x="0px" y="0px"
	 width="178px" height="34.582px" viewBox="355.24 62.605 178 34.582" enable-background="new 355.24 62.605 178 34.582"
	 xml:space="preserve">
<g>
	<g>
		<g>
			<g>
				<path fill="#7D277C" d="M455.333,78.182v11.145h-4.629v-26.4h15.442c3.104,0,5.586,0.693,7.424,2.082
					c1.838,1.375,2.759,3.163,2.759,5.346c0,2.106-0.777,3.873-2.313,5.293c-1.821,1.688-4.448,2.535-7.87,2.535L455.333,78.182
					L455.333,78.182z M455.333,65.978v9.154h9.231c4.658,0,6.986-1.581,6.986-4.74c0-2.944-2.268-4.414-6.8-4.414H455.333
					L455.333,65.978z"/>
				<path fill="#7D277C" d="M481.179,75.94h-3.861c0.178-4.265,3.601-6.395,10.298-6.395c2.002,0,3.807,0.284,5.4,0.851
					c2.6,0.908,3.894,2.424,3.894,4.538v11.114c0,0.761,0.458,1.144,1.362,1.144c0.293,0,0.76-0.073,1.399-0.218v2.354
					c-1.201,0.243-1.965,0.368-2.278,0.368c-1.698,0-2.882-0.311-3.564-0.921c-0.522-0.442-0.813-1.116-0.884-2.023
					c-2.497,2.084-5.516,3.121-9.041,3.121c-2.308,0-4.196-0.517-5.645-1.54c-1.47-1.033-2.192-2.366-2.192-4.009
					c0-3.526,2.534-5.533,7.614-6.028l6.911-0.666c1.47-0.14,2.204-0.899,2.204-2.274c0-2.085-1.961-3.12-5.888-3.12
					c-2.102,0-3.625,0.425-4.563,1.279C481.769,74.083,481.377,74.888,481.179,75.94z M492.686,82.667v-3.159
					c-0.665,0.417-2.965,0.822-6.912,1.218c-3.576,0.36-5.355,1.404-5.355,3.12c0,2.23,1.507,3.345,4.546,3.345
					c2.007,0,3.79-0.44,5.367-1.329C491.896,84.981,492.686,83.913,492.686,82.667z"/>
				<path fill="#7D277C" d="M510.517,85.758l6.688-15.66h4.634c-1.941,4.187-4.943,10.47-9.013,18.851
					c-1.438,2.85-2.471,4.708-3.09,5.595c-0.805,1.152-1.688,1.899-2.638,2.242c-0.76,0.265-2.11,0.4-4.047,0.4
					c-0.301,0-0.884-0.099-1.766-0.288v-2.944c0.784,0.224,1.638,0.335,2.538,0.335c1.054,0,1.813-0.248,2.275-0.74
					c0.396-0.417,1.119-1.655,2.176-3.71l-9.306-19.741h4.772l6.659,15.66H510.517z"/>
			</g>
			<g>
				<path fill="#666666" d="M430.802,82.509V66.361c0,0,0.013-3.435-3.431-3.435l0,0l0,0c-0.116,0-0.372,0-0.372,0h-25.116
					c-1.024,0-1.887,0.388-2.593,1.169l-4.239,4.896c-0.553,0.677-0.834,1.343-0.834,2.263v12.527l1.073,2.171h-1.073l-1.069-2.159
					h-1.078c-1.854,0-1.854-1.854-1.854-1.854V71.254c0-0.92-0.264-1.313-0.846-2.263l-3.283-4.896
					c-0.714-0.945-1.578-1.169-2.601-1.169h-24.811c-0.141,0-0.285,0.013-0.425,0.029c-1.841,0.17-2.56,1.404-2.836,2.345
					c-0.096,0.29-0.148,0.586-0.166,0.888c-0.008,0.111-0.008,0.173-0.008,0.173v3.394l0,0v16.221l0,0
					c0,1.9,1.541,3.428,3.436,3.428c1.892,0,3.426-1.527,3.431-3.428l0,0V69.792l0,0v-0.036h7.159v16.221l0,0
					c0.013,1.9,1.544,3.428,3.439,3.428s3.427-1.527,3.436-3.428l0,0V69.792h4.826l2.341,3.477v12.708
					c0.045,0.927,0.372,1.709,0.946,2.371c0.59,0.664,1.433,1.004,2.526,1.023h25.458c1.02,0,1.883-0.385,2.597-1.172l4.233-4.885
					c0.557-0.685,0.837-1.441,0.837-2.27V68.508h0.008l-1.006-2.036h1.078l0.998,2.036h1.074c0,0,1.85,0,1.85,1.858v15.61
					c0,0,0.004,3.428,3.436,3.428h14.225c1.024,0,2.004-0.418,2.714-1.205l5.033-5.69H430.802z M413.213,80.177l-3.101,3.604h-9.062
					V71.919l3.03-3.411h9.133V80.177z"/>
			</g>
		</g>
	</g>
	<g>
		<path fill="#666666" d="M533.24,66.699c0,2.322-1.822,4.145-4.194,4.145c-2.348,0-4.22-1.823-4.22-4.145
			c0-2.271,1.872-4.094,4.22-4.094C531.418,62.605,533.24,64.428,533.24,66.699z M525.875,66.699c0,1.823,1.349,3.271,3.195,3.271
			c1.798,0,3.121-1.448,3.121-3.246c0-1.823-1.323-3.295-3.146-3.295S525.875,64.902,525.875,66.699z M528.397,68.847h-0.95v-4.095
			c0.376-0.075,0.899-0.125,1.573-0.125c0.774,0,1.123,0.125,1.424,0.3c0.225,0.175,0.399,0.499,0.399,0.899
			c0,0.45-0.35,0.799-0.849,0.949v0.05c0.399,0.15,0.623,0.45,0.748,0.999c0.126,0.625,0.2,0.874,0.3,1.024h-1.024
			c-0.124-0.15-0.198-0.524-0.323-0.999c-0.075-0.45-0.325-0.649-0.85-0.649h-0.448V68.847z M528.421,66.525h0.449
			c0.525,0,0.95-0.175,0.95-0.599c0-0.375-0.274-0.624-0.874-0.624c-0.25,0-0.425,0.024-0.525,0.05V66.525L528.421,66.525z"/>
	</g>
</g>
</svg>
